<?xml version="1.0" standalone="no"?><!DOCTYPE svg PUBLIC "-//W3C//DTD SVG 1.1//EN" "http://www.w3.org/Graphics/SVG/1.1/DTD/svg11.dtd"><svg class="icon" height="512" viewBox="0 0 1024 1024" version="1.1" xmlns="http://www.w3.org/2000/svg"><path d="M508.497 193.2c-132.95 0-240.725 110.894-240.725 247.686 0 169.285 240.725 394.245 240.725 394.245s240.72-224.96 240.72-394.244c0-136.792-107.773-247.687-240.72-247.687z m0 430.086c-99.416 0-180.006-81.664-180.006-182.4 0-100.74 80.59-182.4 180.007-182.4 99.408 0 179.998 81.66 179.998 182.4 0 100.736-80.59 182.4-179.998 182.4z m-34.7-202.975c22.318 0 40.41-19.405 40.41-43.345 0-23.933-18.09-43.342-40.41-43.342-22.33 0-40.424 19.41-40.424 43.342 0 23.94 18.094 43.346 40.423 43.346z m74.65-72.13v-14.435H531.47v180.303h16.974v-86.656l90.44-39.61-90.44-39.603zM474.8 437.65h-0.003c-31.244 0-56.572 27.166-56.572 60.675v15.84H514.5v-59.07c-10.214-10.787-24.233-17.444-39.7-17.444z" fill="#333333" /></svg>